<svg width="132" height="132" viewBox="0 0 132 132" fill="none" xmlns="http://www.w3.org/2000/svg">
<path d="M58.8652 6.08023C62.9765 2.57657 69.0235 2.57657 73.1348 6.08022L83.4955 14.9095C85.2573 16.4109 87.4478 17.3183 89.7552 17.5024L103.325 18.5853C108.709 19.015 112.985 23.2908 113.415 28.6754L114.498 42.2448C114.682 44.5522 115.589 46.7427 117.09 48.5045L125.92 58.8652C129.423 62.9765 129.423 69.0235 125.92 73.1348L117.09 83.4955C115.589 85.2573 114.682 87.4478 114.498 89.7552L113.415 103.325C112.985 108.709 108.709 112.985 103.325 113.415L89.7552 114.498C87.4478 114.682 85.2573 115.589 83.4955 117.09L73.1348 125.92C69.0235 129.423 62.9765 129.423 58.8652 125.92L48.5045 117.09C46.7427 115.589 44.5522 114.682 42.2448 114.498L28.6754 113.415C23.2908 112.985 19.015 108.709 18.5853 103.325L17.5024 89.7552C17.3183 87.4478 16.4109 85.2573 14.9095 83.4955L6.08023 73.1348C2.57658 69.0235 2.57657 62.9765 6.08022 58.8652L14.9095 48.5045C16.4109 46.7427 17.3183 44.5522 17.5024 42.2448L18.5853 28.6754C19.015 23.2908 23.2908 19.015 28.6754 18.5853L42.2448 17.5024C44.5522 17.3183 46.7427 16.4109 48.5045 14.9095L58.8652 6.08023Z" fill="url(#paint0_linear_1_173)"/>
<path d="M58.8652 6.08023C62.9765 2.57657 69.0235 2.57657 73.1348 6.08022L83.4955 14.9095C85.2573 16.4109 87.4478 17.3183 89.7552 17.5024L103.325 18.5853C108.709 19.015 112.985 23.2908 113.415 28.6754L114.498 42.2448C114.682 44.5522 115.589 46.7427 117.09 48.5045L125.92 58.8652C129.423 62.9765 129.423 69.0235 125.92 73.1348L117.09 83.4955C115.589 85.2573 114.682 87.4478 114.498 89.7552L113.415 103.325C112.985 108.709 108.709 112.985 103.325 113.415L89.7552 114.498C87.4478 114.682 85.2573 115.589 83.4955 117.09L73.1348 125.92C69.0235 129.423 62.9765 129.423 58.8652 125.92L48.5045 117.09C46.7427 115.589 44.5522 114.682 42.2448 114.498L28.6754 113.415C23.2908 112.985 19.015 108.709 18.5853 103.325L17.5024 89.7552C17.3183 87.4478 16.4109 85.2573 14.9095 83.4955L6.08023 73.1348C2.57658 69.0235 2.57657 62.9765 6.08022 58.8652L14.9095 48.5045C16.4109 46.7427 17.3183 44.5522 17.5024 42.2448L18.5853 28.6754C19.015 23.2908 23.2908 19.015 28.6754 18.5853L42.2448 17.5024C44.5522 17.3183 46.7427 16.4109 48.5045 14.9095L58.8652 6.08023Z" fill="url(#paint1_linear_1_173)"/>
<path opacity="0.4" d="M59.1895 17.4608C63.114 14.1164 68.886 14.1164 72.8105 17.4608L79.8036 23.4202C81.6454 24.9899 83.9355 25.9385 86.3479 26.131L95.5067 26.8619C100.647 27.272 104.728 31.3535 105.138 36.4933L105.869 45.6521C106.062 48.0645 107.01 50.3546 108.58 52.1964L114.539 59.1895C117.884 63.114 117.884 68.886 114.539 72.8105L108.58 79.8036C107.01 81.6454 106.062 83.9355 105.869 86.3479L105.138 95.5067C104.728 100.647 100.647 104.728 95.5067 105.138L86.3479 105.869C83.9355 106.062 81.6454 107.01 79.8036 108.58L72.8105 114.539C68.886 117.884 63.114 117.884 59.1895 114.539L52.1964 108.58C50.3546 107.01 48.0645 106.062 45.6521 105.869L36.4933 105.138C31.3535 104.728 27.272 100.647 26.8619 95.5067L26.131 86.3479C25.9385 83.9355 24.9899 81.6454 23.4202 79.8036L17.4608 72.8105C14.1164 68.886 14.1164 63.114 17.4608 59.1895L23.4202 52.1964C24.9899 50.3546 25.9385 48.0645 26.131 45.6521L26.8619 36.4933C27.272 31.3535 31.3535 27.272 36.4933 26.8619L45.6521 26.131C48.0645 25.9385 50.3546 24.9899 52.1964 23.4202L59.1895 17.4608Z" stroke="white"/>
<path d="M62.7569 31.7637C64.6257 30.1712 67.3743 30.1712 69.2431 31.7637L76.0955 37.6033C76.8963 38.2858 77.892 38.6982 78.9409 38.7819L87.9155 39.4981C90.363 39.6934 92.3066 41.637 92.5019 44.0845L93.2181 53.0591C93.3018 54.108 93.7142 55.1037 94.3967 55.9045L100.236 62.7569C101.829 64.6257 101.829 67.3743 100.236 69.2431L94.3967 76.0955C93.7142 76.8963 93.3018 77.892 93.2181 78.9409L92.5019 87.9155C92.3066 90.363 90.363 92.3066 87.9155 92.5019L78.9409 93.2181C77.892 93.3018 76.8963 93.7142 76.0955 94.3967L69.2431 100.236C67.3743 101.829 64.6257 101.829 62.7569 100.236L55.9045 94.3967C55.1037 93.7142 54.108 93.3018 53.0591 93.2181L44.0845 92.5019C41.637 92.3066 39.6934 90.363 39.4981 87.9155L38.7819 78.9409C38.6982 77.892 38.2858 76.8963 37.6033 76.0955L31.7637 69.2431C30.1712 67.3743 30.1712 64.6257 31.7637 62.7569L37.6033 55.9045C38.2858 55.1037 38.6982 54.108 38.7819 53.0591L39.4981 44.0845C39.6934 41.637 41.637 39.6934 44.0845 39.4981L53.0591 38.7819C54.108 38.6982 55.1037 38.2858 55.9045 37.6033L62.7569 31.7637Z" fill="white"/>
<path d="M77 60L61.875 73L55 67.0909" stroke="#141414" stroke-width="7" stroke-linecap="round" stroke-linejoin="round"/>
<defs>
<linearGradient id="paint0_linear_1_173" x1="29.8378" y1="27.2381" x2="107.73" y2="30.3989" gradientUnits="userSpaceOnUse">
<stop stop-color="#F7D48B"/>
<stop offset="0.489568" stop-color="#F8E4B3"/>
<stop offset="1" stop-color="#F7D48B"/>
</linearGradient>
<linearGradient id="paint1_linear_1_173" x1="29.8378" y1="27.2381" x2="107.73" y2="30.3989" gradientUnits="userSpaceOnUse">
<stop stop-color="#262525"/>
<stop offset="0.489568" stop-color="#3A3B40"/>
<stop offset="1" stop-color="#262525"/>
</linearGradient>
</defs>
</svg>
