<svg width="75" height="50" viewBox="0 0 75 50" fill="none" xmlns="http://www.w3.org/2000/svg">
<path d="M0 48.3499V43.0402H1.16689L2.8488 46.7677H2.71554L4.36504 43.0402H5.53193V48.3499H4.63155V43.8797H4.84044L3.16933 47.5929H2.36259L0.651875 43.8797H0.900379V48.3499H0Z" fill="#141414"/>
<path d="M7.58097 48.4181C7.1896 48.4181 6.88347 48.3176 6.66258 48.1167C6.44409 47.9134 6.33484 47.6443 6.33484 47.3095C6.33484 46.9507 6.45729 46.6709 6.7022 46.47C6.9495 46.2667 7.34687 46.1447 7.8943 46.104L8.80188 46.0179L8.90272 46.5632L7.98434 46.6458C7.73223 46.6697 7.55095 46.7295 7.44051 46.8251C7.33006 46.9208 7.27484 47.0524 7.27484 47.2198C7.27484 47.3896 7.32526 47.52 7.4261 47.6108C7.52694 47.7017 7.67581 47.7472 7.87269 47.7472C8.00234 47.7472 8.1332 47.7221 8.26525 47.6718C8.39731 47.6216 8.51736 47.5379 8.62541 47.4207V45.8816C8.62541 45.6831 8.59299 45.5276 8.52817 45.4152C8.46574 45.3004 8.3649 45.2203 8.22564 45.1748C8.08878 45.127 7.9099 45.1031 7.68901 45.1031C7.54015 45.1031 7.37088 45.1162 7.1812 45.1425C6.99152 45.1688 6.80664 45.2095 6.62656 45.2645V44.5434C6.81144 44.4884 7.01313 44.4465 7.23162 44.4178C7.45251 44.3891 7.659 44.3748 7.85108 44.3748C8.23764 44.3748 8.55578 44.4238 8.80548 44.5219C9.05759 44.6175 9.24487 44.7802 9.36732 45.0098C9.48977 45.237 9.551 45.5467 9.551 45.939V48.3499H8.76947L8.70104 47.9445H8.65422C8.53417 48.1047 8.3793 48.2243 8.18962 48.3033C8.00234 48.3798 7.79946 48.4181 7.58097 48.4181Z" fill="#141414"/>
<path d="M13.1163 48.3499L11.6613 46.3408L13.0118 44.4358H14.0311L12.6265 46.4484V46.1973L14.1571 48.3499H13.1163ZM11.3083 46.7247V45.9605H12.0106V46.7247H11.3083ZM10.4511 48.3499V42.5522H11.3983V48.3499H10.4511Z" fill="#141414"/>
<path d="M14.5169 48.3499V44.4358H15.4641V48.3499H14.5169ZM14.9923 43.7685C14.7906 43.7685 14.6394 43.723 14.5385 43.6321C14.4401 43.5412 14.3909 43.4157 14.3909 43.2554C14.3909 43.0928 14.4401 42.9672 14.5385 42.8787C14.6394 42.7878 14.7906 42.7424 14.9923 42.7424C15.1964 42.7424 15.3477 42.7878 15.4461 42.8787C15.5446 42.9672 15.5938 43.0928 15.5938 43.2554C15.5938 43.4157 15.5446 43.5412 15.4461 43.6321C15.3477 43.723 15.1964 43.7685 14.9923 43.7685Z" fill="#141414"/>
<path d="M16.4021 48.3499V44.4358H17.1872L17.2521 44.8483H17.2989C17.4501 44.6953 17.6266 44.5781 17.8283 44.4968C18.03 44.4154 18.2473 44.3748 18.4802 44.3748C18.7347 44.3748 18.9604 44.4238 19.1573 44.5219C19.3565 44.6199 19.5126 44.7778 19.6255 44.9954C19.7383 45.2107 19.7947 45.4989 19.7947 45.8601V48.3499H18.8475V45.9139C18.8475 45.6436 18.7899 45.4559 18.6747 45.3506C18.5594 45.2454 18.4009 45.1928 18.1992 45.1928C18.1032 45.1928 18.0036 45.2059 17.9003 45.2322C17.7971 45.2585 17.6974 45.3004 17.6014 45.3578C17.5054 45.4152 17.4213 45.4905 17.3493 45.5838V48.3499H16.4021Z" fill="#141414"/>
<path d="M22.0291 50.0002C21.8322 50.0002 21.6234 49.9871 21.4025 49.9608C21.184 49.9344 20.9739 49.8926 20.7722 49.8352V49.0854C20.9859 49.1476 21.1936 49.193 21.3953 49.2217C21.5969 49.2504 21.7854 49.2647 21.9607 49.2647C22.3593 49.2647 22.6498 49.1858 22.8323 49.028C23.0171 48.8725 23.1096 48.6082 23.1096 48.2351V47.9337H23.0628C22.9475 48.0701 22.8022 48.1789 22.627 48.2602C22.4517 48.3415 22.25 48.3822 22.0219 48.3822C21.753 48.3822 21.5033 48.3164 21.2728 48.1849C21.0423 48.0533 20.8562 47.8476 20.7146 47.5678C20.5753 47.2879 20.5057 46.9232 20.5057 46.4736C20.5057 45.7871 20.6846 45.2657 21.0423 44.9093C21.4001 44.553 21.9367 44.3748 22.6522 44.3748C22.8083 44.3748 22.9691 44.3831 23.1348 44.3999C23.3005 44.4142 23.4613 44.437 23.6174 44.4681C23.7759 44.4991 23.9223 44.5362 24.0568 44.5793V48.0665C24.0568 48.7505 23.8887 49.2432 23.5526 49.5446C23.2188 49.8483 22.711 50.0002 22.0291 50.0002ZM22.3641 47.6073C22.5009 47.6073 22.6354 47.5821 22.7674 47.5319C22.9019 47.4817 23.0159 47.4028 23.1096 47.2951V45.1641C23.0399 45.1449 22.9583 45.1294 22.8647 45.1174C22.771 45.1055 22.6726 45.0995 22.5694 45.0995C22.2116 45.0995 21.9367 45.1999 21.7446 45.4008C21.5549 45.5994 21.4601 45.9294 21.4601 46.391C21.4601 46.7067 21.4985 46.9531 21.5753 47.1301C21.6522 47.3071 21.7578 47.4315 21.8923 47.5032C22.0291 47.5726 22.1864 47.6073 22.3641 47.6073Z" fill="#141414"/>
<path d="M29.2948 48.4181C28.8795 48.4181 28.5073 48.3678 28.1784 48.2674C27.8518 48.1645 27.5745 48.0055 27.3464 47.7902C27.1183 47.5726 26.9443 47.2915 26.8242 46.9471C26.7042 46.6027 26.6441 46.1889 26.6441 45.7058C26.6441 45.0863 26.7498 44.5745 26.9611 44.1703C27.1748 43.7661 27.4833 43.4659 27.8867 43.2698C28.29 43.0713 28.7786 42.972 29.3525 42.972C29.5566 42.972 29.7534 42.984 29.9431 43.0079C30.1328 43.0294 30.3189 43.0629 30.5014 43.1083V43.9084C30.3261 43.8629 30.1484 43.8295 29.9683 43.8079C29.7907 43.7864 29.6082 43.7756 29.4209 43.7756C29.0295 43.7756 28.703 43.839 28.4413 43.9658C28.1796 44.0925 27.9827 44.297 27.8506 44.5793C27.721 44.8591 27.6562 45.2298 27.6562 45.6914C27.6562 46.1674 27.7222 46.5465 27.8542 46.8287C27.9863 47.1086 28.1796 47.3095 28.4341 47.4315C28.691 47.5534 29.0067 47.6144 29.3813 47.6144C29.5686 47.6144 29.7534 47.6001 29.9359 47.5714C30.1184 47.5427 30.3069 47.4984 30.5014 47.4386V48.2387C30.3285 48.2937 30.1388 48.3367 29.9323 48.3678C29.7258 48.4013 29.5133 48.4181 29.2948 48.4181Z" fill="#141414"/>
<path d="M32.1374 48.4181C31.746 48.4181 31.4399 48.3176 31.219 48.1167C31.0005 47.9134 30.8913 47.6443 30.8913 47.3095C30.8913 46.9507 31.0137 46.6709 31.2586 46.47C31.5059 46.2667 31.9033 46.1447 32.4507 46.104L33.3583 46.0179L33.4592 46.5632L32.5408 46.6458C32.2887 46.6697 32.1074 46.7295 31.9969 46.8251C31.8865 46.9208 31.8313 47.0524 31.8313 47.2198C31.8313 47.3896 31.8817 47.52 31.9825 47.6108C32.0834 47.7017 32.2322 47.7472 32.4291 47.7472C32.5588 47.7472 32.6896 47.7221 32.8217 47.6718C32.9537 47.6216 33.0738 47.5379 33.1818 47.4207V45.8816C33.1818 45.6831 33.1494 45.5276 33.0846 45.4152C33.0222 45.3004 32.9213 45.2203 32.7821 45.1748C32.6452 45.127 32.4663 45.1031 32.2454 45.1031C32.0966 45.1031 31.9273 45.1162 31.7376 45.1425C31.548 45.1688 31.3631 45.2095 31.183 45.2645V44.5434C31.3679 44.4884 31.5696 44.4465 31.7881 44.4178C32.0089 44.3891 32.2154 44.3748 32.4075 44.3748C32.7941 44.3748 33.1122 44.4238 33.3619 44.5219C33.614 44.6175 33.8013 44.7802 33.9238 45.0098C34.0462 45.237 34.1074 45.5467 34.1074 45.939V48.3499H33.3259L33.2575 47.9445H33.2107C33.0906 48.1047 32.9357 48.2243 32.7461 48.3033C32.5588 48.3798 32.3559 48.4181 32.1374 48.4181Z" fill="#141414"/>
<path d="M36.088 48.4216C35.8719 48.4216 35.6631 48.4073 35.4614 48.3786C35.2597 48.3523 35.0688 48.3116 34.8887 48.2566V47.5498C35.0808 47.6073 35.2753 47.6503 35.4722 47.679C35.6715 47.7077 35.8731 47.7221 36.0772 47.7221C36.3654 47.7221 36.5706 47.6802 36.6931 47.5965C36.8155 47.5104 36.8768 47.392 36.8768 47.2413C36.8768 47.1145 36.8432 47.0177 36.7759 46.9507C36.7087 46.8837 36.5947 46.8347 36.4338 46.8036L35.8323 46.6888C35.4674 46.6171 35.2033 46.4903 35.04 46.3085C34.8767 46.1244 34.7951 45.8828 34.7951 45.5838C34.7951 45.225 34.938 44.9344 35.2237 44.712C35.5118 44.4872 35.9512 44.3748 36.5418 44.3748C36.7267 44.3748 36.9044 44.3855 37.0749 44.4071C37.2477 44.4262 37.4062 44.4561 37.5503 44.4968V45.2035C37.3966 45.1605 37.2369 45.1282 37.0713 45.1067C36.908 45.0851 36.7411 45.0744 36.5706 45.0744C36.3401 45.0744 36.1601 45.0971 36.0304 45.1425C35.9032 45.1856 35.8131 45.2442 35.7603 45.3183C35.7075 45.3925 35.6811 45.4738 35.6811 45.5623C35.6811 45.6699 35.7135 45.7596 35.7783 45.8314C35.8431 45.9007 35.956 45.9521 36.1168 45.9856L36.7147 46.0968C37.0701 46.1662 37.333 46.287 37.5034 46.4592C37.6763 46.629 37.7627 46.8766 37.7627 47.2018C37.7627 47.5797 37.6175 47.8775 37.327 48.0952C37.0388 48.3128 36.6259 48.4216 36.088 48.4216Z" fill="#141414"/>
<path d="M38.4332 48.3499V42.5522H39.3804V44.8448H39.4273C39.5713 44.6917 39.7382 44.5757 39.9279 44.4968C40.12 44.4154 40.33 44.3748 40.5581 44.3748C40.7958 44.3748 41.0107 44.4238 41.2028 44.5219C41.3949 44.6175 41.5462 44.7742 41.6566 44.9919C41.7694 45.2095 41.8259 45.4977 41.8259 45.8565V48.3499H40.8787V45.9175C40.8787 45.6448 40.8198 45.457 40.7022 45.3542C40.5845 45.249 40.4273 45.1963 40.2304 45.1963C40.132 45.1963 40.0311 45.2095 39.9279 45.2358C39.8246 45.2621 39.725 45.3052 39.6289 45.365C39.5353 45.4224 39.4525 45.4953 39.3804 45.5838V48.3499H38.4332Z" fill="#141414"/>
<path d="M44.1181 48.3499L45.908 43.0402H47.3018L49.0918 48.3499H48.1374L46.5419 43.4671H46.6535L45.0617 48.3499H44.1181ZM45.2489 46.8251L45.4578 46.0538H47.7484L47.9573 46.8251H45.2489Z" fill="#141414"/>
<path d="M51.3573 48.4216C50.942 48.4216 50.5902 48.3499 50.3021 48.2064C50.014 48.0605 49.7955 47.8381 49.6466 47.5391C49.4978 47.2401 49.4233 46.8598 49.4233 46.3982C49.4233 45.9342 49.5038 45.5527 49.6646 45.2537C49.8255 44.9548 50.0596 44.7335 50.3669 44.59C50.6743 44.4465 51.0476 44.3748 51.487 44.3748C51.6383 44.3748 51.7847 44.3831 51.9264 44.3999C52.0704 44.4142 52.2073 44.437 52.337 44.4681V45.225C52.2121 45.1987 52.0896 45.1784 51.9696 45.1641C51.8495 45.1497 51.7295 45.1425 51.6094 45.1425C51.3333 45.1425 51.1052 45.1844 50.9252 45.2681C50.7475 45.3494 50.6154 45.4822 50.529 45.6663C50.4426 45.8481 50.3993 46.0885 50.3993 46.3874C50.3993 46.6936 50.4402 46.9399 50.5218 47.1265C50.6058 47.3131 50.7295 47.4482 50.8927 47.5319C51.056 47.6132 51.2589 47.6539 51.5014 47.6539C51.6263 47.6539 51.7547 47.6431 51.8868 47.6216C52.0188 47.5977 52.1689 47.5618 52.337 47.514V48.271C52.1905 48.3188 52.0332 48.3559 51.8652 48.3822C51.6995 48.4085 51.5302 48.4216 51.3573 48.4216Z" fill="#141414"/>
<path d="M54.0068 48.4181C53.6154 48.4181 53.3093 48.3176 53.0884 48.1167C52.8699 47.9134 52.7606 47.6443 52.7606 47.3095C52.7606 46.9507 52.8831 46.6709 53.128 46.47C53.3753 46.2667 53.7727 46.1447 54.3201 46.104L55.2277 46.0179L55.3285 46.5632L54.4101 46.6458C54.158 46.6697 53.9767 46.7295 53.8663 46.8251C53.7559 46.9208 53.7006 47.0524 53.7006 47.2198C53.7006 47.3896 53.7511 47.52 53.8519 47.6108C53.9527 47.7017 54.1016 47.7472 54.2985 47.7472C54.4281 47.7472 54.559 47.7221 54.691 47.6718C54.8231 47.6216 54.9432 47.5379 55.0512 47.4207V45.8816C55.0512 45.6831 55.0188 45.5276 54.954 45.4152C54.8915 45.3004 54.7907 45.2203 54.6514 45.1748C54.5146 45.127 54.3357 45.1031 54.1148 45.1031C53.9659 45.1031 53.7967 45.1162 53.607 45.1425C53.4173 45.1688 53.2324 45.2095 53.0524 45.2645V44.5434C53.2372 44.4884 53.4389 44.4465 53.6574 44.4178C53.8783 44.3891 54.0848 44.3748 54.2769 44.3748C54.6634 44.3748 54.9816 44.4238 55.2313 44.5219C55.4834 44.6175 55.6707 44.7802 55.7931 45.0098C55.9156 45.237 55.9768 45.5467 55.9768 45.939V48.3499H55.1953L55.1268 47.9445H55.08C54.96 48.1047 54.8051 48.2243 54.6154 48.3033C54.4281 48.3798 54.2253 48.4181 54.0068 48.4181Z" fill="#141414"/>
<path d="M58.2779 48.4181C57.9898 48.4181 57.7245 48.3535 57.482 48.2243C57.2419 48.0928 57.0498 47.8847 56.9058 47.6001C56.7617 47.3131 56.6897 46.9376 56.6897 46.4736C56.6897 46.0143 56.7689 45.6293 56.9274 45.3183C57.0858 45.005 57.3199 44.7694 57.6297 44.6116C57.9394 44.4513 58.3212 44.3712 58.7749 44.3712C58.8662 44.3712 58.9562 44.3748 59.0451 44.3819C59.1363 44.3891 59.2191 44.3987 59.2936 44.4107V42.5522H60.2408V48.3499H59.4448L59.3836 47.9337H59.3368C59.2215 48.0772 59.0751 48.1944 58.8974 48.2853C58.7197 48.3738 58.5132 48.4181 58.2779 48.4181ZM58.5444 47.6395C58.6813 47.6395 58.817 47.612 58.9514 47.557C59.0859 47.502 59.1999 47.4159 59.2936 47.2987V45.1533C59.2239 45.1389 59.1423 45.127 59.0487 45.1174C58.955 45.1055 58.8626 45.0995 58.7713 45.0995C58.3992 45.0995 58.1183 45.1999 57.9286 45.4008C57.7389 45.6018 57.6441 45.9342 57.6441 46.3982C57.6441 46.7187 57.6813 46.9686 57.7557 47.148C57.8326 47.3274 57.9382 47.4542 58.0727 47.5283C58.2095 47.6025 58.3668 47.6395 58.5444 47.6395Z" fill="#141414"/>
<path d="M63.0404 48.4216C62.577 48.4216 62.1929 48.3523 61.8879 48.2136C61.5854 48.0724 61.3597 47.8524 61.2109 47.5534C61.062 47.2545 60.9876 46.867 60.9876 46.391C60.9876 45.9486 61.056 45.5778 61.1929 45.2789C61.3321 44.9799 61.5314 44.7551 61.7907 44.6044C62.05 44.4513 62.3633 44.3748 62.7307 44.3748C63.0837 44.3748 63.3814 44.4513 63.6239 44.6044C63.8688 44.7551 64.0537 44.9823 64.1785 45.286C64.3034 45.5898 64.3658 45.9677 64.3658 46.4197V46.6745H61.5206V46.1076H63.6455L63.4798 46.1865C63.4798 45.89 63.451 45.6544 63.3934 45.4798C63.3358 45.3052 63.2505 45.1808 63.1377 45.1067C63.0248 45.0301 62.8856 44.9919 62.7199 44.9919C62.5542 44.9919 62.4126 45.0289 62.2949 45.1031C62.1773 45.1772 62.0872 45.3016 62.0248 45.4762C61.9648 45.6508 61.9348 45.8864 61.9348 46.183V46.5489C61.9348 46.8311 61.9744 47.0571 62.0536 47.227C62.1353 47.3944 62.2661 47.5152 62.4462 47.5893C62.6263 47.6611 62.8676 47.6969 63.1701 47.6969C63.3214 47.6969 63.4798 47.685 63.6455 47.6611C63.8112 47.6371 63.9816 47.6037 64.1569 47.5606V48.2817C63.9552 48.332 63.7631 48.3678 63.5807 48.3894C63.4006 48.4109 63.2205 48.4216 63.0404 48.4216Z" fill="#141414"/>
<path d="M65.0648 48.3499V44.4358H65.8499L65.9147 44.8519H65.9615C66.1056 44.6941 66.2713 44.5757 66.4586 44.4968C66.6482 44.4154 66.8547 44.3748 67.078 44.3748C67.3061 44.3748 67.5102 44.4226 67.6903 44.5183C67.8703 44.614 68.012 44.7694 68.1152 44.9847C68.2185 45.1975 68.2701 45.4798 68.2701 45.8314V48.3499H67.3445V45.9103C67.3445 45.64 67.2917 45.4535 67.1861 45.3506C67.0828 45.2454 66.9448 45.1928 66.7719 45.1928C66.6831 45.1928 66.5918 45.2071 66.4982 45.2358C66.4045 45.2621 66.3157 45.3052 66.2317 45.365C66.1476 45.4248 66.0744 45.5013 66.012 45.5946V48.3499H65.0648ZM69.5775 48.3499V45.9103C69.5775 45.64 69.5222 45.4535 69.4118 45.3506C69.3014 45.2454 69.1585 45.1928 68.9832 45.1928C68.892 45.1928 68.7971 45.2071 68.6987 45.2358C68.6003 45.2645 68.5066 45.3123 68.4178 45.3793C68.3289 45.4439 68.2521 45.5312 68.1873 45.6412L67.9856 44.999C68.1681 44.7718 68.371 44.6116 68.5943 44.5183C68.8199 44.4226 69.042 44.3748 69.2605 44.3748C69.503 44.3748 69.7191 44.4238 69.9088 44.5219C70.0985 44.6175 70.2473 44.7742 70.3554 44.9919C70.4658 45.2095 70.5211 45.4989 70.5211 45.8601V48.3499H69.5775Z" fill="#141414"/>
<path d="M72.0756 49.9285L72.6518 48.3499L72.9723 47.618L74.0636 44.4358H75L73.0084 49.9285H72.0756ZM72.3889 48.3499L70.9735 44.4358H71.9639L73.2749 48.3499H72.3889Z" fill="#141414"/>
<path d="M2.28314 0.335029H9.86163L13.5388 15.0986C13.9274 16.7365 14.2338 18.3 14.458 19.789C14.6823 21.2632 14.899 22.6554 15.1083 23.9657H15.2876C15.4969 22.6554 15.7137 21.2632 15.9379 19.789C16.1621 18.3 16.4685 16.7365 16.8572 15.0986L20.6464 0.335029H28.0679V38.4836H22.6419V25.8642C22.6419 23.9285 22.6569 22.0672 22.6868 20.2804C22.7316 18.4936 22.7839 16.8557 22.8437 15.3667C22.9035 13.8627 22.9708 12.5375 23.0455 11.391C23.1202 10.2444 23.1875 9.33613 23.2473 8.66608H22.8213L17.0365 33.5699H13.3594L7.52978 8.66608H7.10378C7.16357 9.33613 7.23083 10.2444 7.30557 11.391C7.38031 12.5375 7.44757 13.8627 7.50736 15.3667C7.56715 16.8557 7.612 18.4936 7.64189 20.2804C7.68674 22.0672 7.70916 23.9285 7.70916 25.8642V38.4836H2.28314V0.335029Z" fill="#FADA5C"/>
<path d="M42.8661 38.8187C42.2682 38.8187 41.618 38.7665 40.9155 38.6623C40.2279 38.573 39.5328 38.372 38.8303 38.0593C38.1427 37.7466 37.4775 37.3073 36.8348 36.7415C36.2069 36.1608 35.6464 35.4014 35.1531 34.4633C34.6748 33.5252 34.2862 32.3712 33.9872 31.0013C33.7032 29.6165 33.5612 27.9712 33.5612 26.0652V12.5524C33.5612 10.6316 33.7107 8.99366 34.0096 7.63865C34.3086 6.26876 34.7047 5.12222 35.198 4.19903C35.6913 3.26095 36.2593 2.51644 36.902 1.9655C37.5448 1.41457 38.2099 0.997641 38.8975 0.714728C39.5851 0.416925 40.2652 0.223352 40.9379 0.134011C41.6255 0.0446705 42.2608 0 42.8437 0C44.3684 0 45.6389 0.215907 46.6554 0.647722C47.6868 1.06465 48.5089 1.64536 49.1218 2.38987C49.7496 3.11949 50.1905 3.97567 50.4446 4.95843C50.7137 5.94118 50.8482 6.98349 50.8482 8.08536C50.8482 8.90432 50.8034 9.66372 50.7137 10.3636C50.639 11.0485 50.5194 11.8079 50.3549 12.6418H45.6464V10.6986C45.6464 8.59907 45.4147 7.02816 44.9514 5.98585C44.488 4.94353 43.8079 4.42238 42.911 4.42238C42.3729 4.42238 41.902 4.52661 41.4984 4.73507C41.0948 4.94353 40.7585 5.3009 40.4895 5.80716C40.2204 6.29854 40.0111 6.95371 39.8617 7.77267C39.7271 8.59163 39.6599 9.6116 39.6599 10.8326V28.2541C39.6599 29.4453 39.7122 30.4355 39.8168 31.2247C39.9364 32.0139 40.1232 32.6467 40.3774 33.1232C40.6315 33.5997 40.9603 33.9421 41.3639 34.1506C41.7824 34.3442 42.2832 34.441 42.8661 34.441C43.2398 34.441 43.5986 34.3591 43.9424 34.1953C44.2862 34.0166 44.5851 33.7486 44.8392 33.3912C45.1083 33.0189 45.3176 32.5573 45.467 32.0064C45.6315 31.4406 45.7137 30.778 45.7137 30.0186V26.2886H51.0276V29.8176C51.0276 32.8849 50.3251 35.1482 48.92 36.6075C47.5149 38.0667 45.4969 38.8038 42.8661 38.8187Z" fill="#FADA5C"/>
<path d="M59.8168 0.335029H66.4985L73.5837 38.4836H67.7092L66.6554 31.649H59.6599L58.6509 38.4836H52.7541L59.8168 0.335029ZM65.9828 27.2937L63.2922 8.28638H63.0455L60.3325 27.2937H65.9828Z" fill="#FADA5C"/>
</svg>
