<svg width="109" height="109" viewBox="0 0 109 109" fill="none" xmlns="http://www.w3.org/2000/svg">
<path d="M37.1326 17.0967C38.3068 14.6421 41.2282 13.5771 43.7066 14.7001L54.133 19.4244C55.3082 19.9569 56.6437 20.0145 57.8603 19.5852L68.6549 15.7764C71.2208 14.871 74.0397 16.1837 74.9981 18.7303L79.0301 29.4435C79.4845 30.6509 80.3881 31.636 81.552 32.1928L91.8781 37.1324C94.3327 38.3066 95.3977 41.2281 94.2747 43.7065L89.5504 54.1329C89.0179 55.308 88.9603 56.6435 89.3896 57.8602L93.1984 68.6547C94.1038 71.2206 92.7911 74.0395 90.2445 74.9979L79.5313 79.03C78.3239 79.4844 77.3388 80.388 76.782 81.5518L71.8424 91.8779C70.6682 94.3325 67.7467 95.3976 65.2683 94.2746L54.8419 89.5503C53.6667 89.0178 52.3313 88.9602 51.1146 89.3895L40.3201 93.1982C37.7541 94.1036 34.9353 92.7909 33.9768 90.2443L29.9449 79.5312C29.4904 78.3237 28.5868 77.3386 27.423 76.7819L17.0969 71.8422C14.6423 70.668 13.5772 67.7466 14.7002 65.2682L19.4245 54.8418C19.957 53.6666 20.0146 52.3311 19.5853 51.1145L15.7765 40.3199C14.8712 37.754 16.1839 34.9351 18.7305 33.9767L29.4436 29.9447C30.6511 29.4903 31.6362 28.5867 32.1929 27.4228L37.1326 17.0967Z" fill="#EF2C2C"/>
<path d="M33.6776 59.5139C33.0168 59.7548 32.3937 59.8365 31.8084 59.759C31.2262 59.6803 30.703 59.4275 30.2388 59.0007C29.7765 58.5696 29.3981 57.9501 29.1035 57.1421C28.809 56.3341 28.7005 55.618 28.778 54.9937C28.8575 54.3651 29.0947 53.8333 29.4896 53.3984C29.8877 52.9624 30.4171 52.6239 31.0779 52.383C31.7387 52.1421 32.3608 52.0626 32.9441 52.1444C33.5294 52.222 34.0532 52.4763 34.5154 52.9074C34.9797 53.3342 35.3585 53.95 35.6519 54.7548C35.9454 55.5597 36.0523 56.2764 35.9728 56.905C35.8953 57.5293 35.6581 58.0611 35.2611 58.5002C34.8631 58.9363 34.3352 59.2742 33.6776 59.5139ZM33.2289 58.2832C33.5859 58.153 33.8633 57.965 34.061 57.7191C34.2607 57.4688 34.3662 57.1501 34.3776 56.7628C34.3921 56.3743 34.2994 55.9061 34.0996 55.358C33.8919 54.788 33.6563 54.3559 33.3929 54.0617C33.1284 53.7643 32.8392 53.5841 32.5253 53.5211C32.2134 53.4539 31.8805 53.4848 31.5266 53.6138C31.1727 53.7428 30.8954 53.9308 30.6945 54.1779C30.4968 54.4238 30.3907 54.741 30.3762 55.1295C30.3617 55.518 30.4549 55.9878 30.6558 56.539C30.8648 57.1121 31.0999 57.5479 31.3613 57.8464C31.6247 58.1407 31.9118 58.3198 32.2225 58.384C32.5364 58.4469 32.8719 58.4133 33.2289 58.2832Z" fill="white"/>
<path d="M37.9409 57.8586L35.4064 50.9062L36.9378 50.3479L42.0752 54.2067L41.8121 54.3026L39.9677 49.2433L41.4052 48.7193L43.9398 55.6717L42.4036 56.2317L37.2709 52.3712L37.534 52.2753L39.3784 57.3345L37.9409 57.8586Z" fill="white"/>
<path d="M45.1892 55.2162L42.6546 48.2638L47.5354 46.4845L47.9806 47.7058L44.6078 48.9354L46.2518 53.4451L49.6717 52.1984L50.1169 53.4197L45.1892 55.2162ZM45.022 51.9403L44.5768 50.7189L48.0718 49.4448L48.517 50.6662L45.022 51.9403Z" fill="white"/>
<path d="M55.0767 51.6116L53.0045 45.9276L50.8107 46.7273L50.3484 45.459L56.2626 43.3029L56.725 44.5712L54.5359 45.3693L56.6081 51.0533L55.0767 51.6116Z" fill="white"/>
<path d="M59.4837 50.005L56.9492 43.0526L58.4759 42.496L61.0104 49.4484L59.4837 50.005Z" fill="white"/>
<path d="M62.2825 48.9847L59.748 42.0323L61.6035 41.3558L65.3077 45.2102L65.1245 45.277L65.4227 39.9635L67.2782 39.2871L69.8128 46.2395L68.3894 46.7584L66.3412 41.1401L66.6418 41.0305L66.3083 46.3782L65.054 46.8354L61.2913 42.9811L61.6577 42.8475L63.7059 48.4658L62.2825 48.9847Z" fill="white"/>
<path d="M71.0809 45.7772L68.5463 38.8248L73.4271 37.0454L73.8724 38.2668L70.4995 39.4964L72.1435 44.0061L75.5634 42.7594L76.0086 43.9807L71.0809 45.7772ZM70.9138 42.5013L70.4685 41.2799L73.9635 40.0058L74.4087 41.2272L70.9138 42.5013Z" fill="white"/>
<path d="M46.4487 70.8238C45.7879 71.0647 45.1649 71.1464 44.5796 71.0688C43.9974 70.9901 43.4742 70.7374 43.0099 70.3106C42.5477 69.8795 42.1692 69.26 41.8747 68.452C41.5801 67.644 41.4716 66.9278 41.5491 66.3035C41.6287 65.6749 41.8659 65.1432 42.2608 64.7083C42.6589 64.2723 43.1883 63.9338 43.8491 63.6929C44.5099 63.452 45.1319 63.3725 45.7152 63.4543C46.3005 63.5318 46.8243 63.7862 47.2866 64.2172C47.7509 64.644 48.1297 65.2599 48.4231 66.0647C48.7165 66.8696 48.8235 67.5863 48.744 68.2149C48.6664 68.8392 48.4292 69.3709 48.0323 69.8101C47.6342 70.2461 47.1064 70.584 46.4487 70.8238ZM46 69.593C46.357 69.4629 46.6344 69.2748 46.8321 69.0289C47.0319 68.7787 47.1374 68.4599 47.1488 68.0726C47.1633 67.6842 47.0706 67.2159 46.8708 66.6679C46.663 66.0979 46.4274 65.6658 46.1641 65.3715C45.8995 65.0741 45.6103 64.894 45.2964 64.831C44.9845 64.7638 44.6517 64.7946 44.2978 64.9236C43.9439 65.0527 43.6665 65.2407 43.4657 65.4878C43.2679 65.7337 43.1618 66.0509 43.1473 66.4394C43.1328 66.8278 43.2261 67.2976 43.427 67.8488C43.6359 68.4219 43.8711 68.8577 44.1325 69.1563C44.3959 69.4505 44.6829 69.6297 44.9937 69.6938C45.3076 69.7568 45.643 69.7232 46 69.593Z" fill="white"/>
<path d="M50.7121 69.1684L48.1776 62.216L53.0442 60.4418L53.4981 61.6867L50.1581 62.9043L52.2388 68.6119L50.7121 69.1684ZM50.6741 66.0424L50.2203 64.7975L53.6354 63.5525L54.0893 64.7974L50.6741 66.0424Z" fill="white"/>
<path d="M56.4098 67.0913L53.8752 60.1389L58.7419 58.3647L59.1957 59.6096L55.8557 60.8272L57.9365 66.5347L56.4098 67.0913ZM56.3718 63.9653L55.9179 62.7204L59.3331 61.4754L59.7869 62.7202L56.3718 63.9653Z" fill="white"/>
<path d="M62.1074 65.0142L59.5729 58.0618L64.4536 56.2825L64.8989 57.5038L61.526 58.7334L63.1701 63.2431L66.5899 61.9964L67.0352 63.2178L62.1074 65.0142ZM61.9403 61.7383L61.495 60.5169L64.99 59.2428L65.4353 60.4642L61.9403 61.7383Z" fill="white"/>
<path d="M67.9977 62.8668L65.5197 56.0694C65.7124 55.946 65.9215 55.8236 66.1469 55.7024C66.3712 55.5781 66.6068 55.4603 66.8536 55.349C67.0993 55.2346 67.3505 55.1306 67.6073 55.037C68.6063 54.6728 69.4242 54.5804 70.0608 54.7599C70.6963 54.9362 71.1539 55.408 71.4336 56.1753C71.614 56.6701 71.6463 57.1284 71.5304 57.5503C71.4135 57.969 71.165 58.3434 70.7851 58.6735C70.4083 59.0025 69.9146 59.2783 69.3039 59.5009C69.1661 59.5511 69.0387 59.5958 68.9217 59.6349C68.8035 59.6709 68.6822 59.708 68.5578 59.7463L69.4963 62.3205L67.9977 62.8668ZM72.0893 61.3752L68.6819 58.9772L70.3167 58.3813L73.757 60.7673L72.0893 61.3752ZM68.9176 58.3538C69.4218 58.17 69.7641 57.9459 69.9444 57.6814C70.1248 57.417 70.1436 57.0891 70.0009 56.6976C69.9073 56.4408 69.7791 56.2498 69.6164 56.1246C69.4525 55.9963 69.2514 55.9313 69.013 55.9295C68.7747 55.9277 68.4942 55.9856 68.1716 56.1032C68.0119 56.1614 67.867 56.2213 67.7369 56.2829C67.6068 56.3446 67.4837 56.4107 67.3676 56.4815L68.1382 58.5954C68.2313 58.5685 68.3187 58.5455 68.4004 58.5264C68.4842 58.503 68.5673 58.478 68.6499 58.4514C68.7344 58.4206 68.8237 58.3881 68.9176 58.3538Z" fill="white"/>
</svg>
