<svg width="38" height="38" viewBox="0 0 38 38" fill="none" xmlns="http://www.w3.org/2000/svg">
<path d="M16.9728 1.85828C18.1198 0.80688 19.8802 0.806881 21.0272 1.85828L24.6802 5.20691C25.1155 5.60596 25.6589 5.86766 26.2423 5.9592L31.138 6.72739C32.6751 6.96859 33.7728 8.34496 33.6659 9.89724L33.3254 14.8411C33.2848 15.4303 33.419 16.0183 33.7112 16.5315L36.163 20.838C36.9328 22.1902 36.5411 23.9065 35.2608 24.7908L31.1833 27.607C30.6974 27.9426 30.3213 28.4142 30.1023 28.9626L28.2639 33.5646C27.6867 35.0095 26.1006 35.7733 24.6111 35.3237L19.8669 33.8917C19.3016 33.721 18.6984 33.721 18.1331 33.8917L13.3889 35.3237C11.8994 35.7733 10.3132 35.0095 9.73605 33.5646L7.89773 28.9626C7.67866 28.4142 7.30261 27.9426 6.8167 27.607L2.73915 24.7908C1.45889 23.9065 1.06715 22.1902 1.83697 20.838L4.28877 16.5315C4.58095 16.0183 4.71516 15.4303 4.67459 14.8411L4.33413 9.89723C4.22724 8.34496 5.32486 6.96859 6.862 6.72739L11.7577 5.9592C12.3411 5.86766 12.8845 5.60596 13.3198 5.20691L16.9728 1.85828Z" fill="#FADA5C"/>
<path d="M23 17L17.5 22L15 19.7273" stroke="#141414" stroke-width="2" stroke-linecap="round" stroke-linejoin="round"/>
</svg>
